<svg xmlns="http://www.w3.org/2000/svg" width="100" height="100" fill="none" viewBox="0 0 100 100">
    <mask id="a" width="117" height="101" x="0" y="0" maskUnits="userSpaceOnUse">
        <path fill="#FFFFFF" d="M116.111 50c0 27.614-38.497 50-66.111 50-27.614 0-50-22.386-50-50S22.386 0 50 0s66.111 22.386 66.111 50z"/>
    </mask>
    <g mask="url(#a)">
        <circle cx="50" cy="50" r="50" fill="#EDEDED"/>
        <path fill="#CCC" fill-rule="evenodd" d="M6.07 32.967h21.853v-.562H6.07v.562zM5.053 48.913h14.37v-.587H5.052v.587zM11.485 39.52H29.27v-.563H11.485v.563zM3.333 57.398h21.865v-.562H3.333v.562zM9.434 73.32H23.83v-.588H9.434v.588zM14.57 63.85h21.838v-.536H14.57v.536z" clip-rule="evenodd"/>
        <path fill="#996D35" fill-rule="evenodd" d="M83.746 27.11c1.531.414 1.74 1.786 1.32 3.296-.42 1.51-1.31 2.584-2.842 2.171-1.53-.415-1.835-1.445-1.414-2.955.42-1.51 1.403-2.927 2.936-2.512z" clip-rule="evenodd"/>
        <path fill="#1A1A1A" fill-rule="evenodd" d="M90.574 44.982c.373-.315 4.387 1.442 4.387 1.442s.16.34-.355.269c-.514-.073-3.204-.988-3.449-.808-.243.18 1.365 2.301.876 2.703-.488.404-1.833-3.29-1.459-3.606z" clip-rule="evenodd"/>
        <path fill="#996D35" fill-rule="evenodd" d="M28.818 72.748c3.037 2.264 10.329 8.105 12.11 6.593 3.038-2.578-1.356-5.352-1.303-6.493.055-1.142 6.783-3.983 6.471-9.11-.525-3.192-.298-8.287 2.97-8.072 3.266.212-10.914-23.71-16.668-15.341-5.754 8.37-11.182 10.885-6.602 15.496 4.58 4.61 4.046 8.272 3.567 9.862-.48 1.59-3.58 4.801-.545 7.065z" clip-rule="evenodd"/>
        <path fill="#996D35" fill-rule="evenodd" d="M67.664 61.604c.112.47 2.514 5.706 3.532 7.529 1.02 1.823 2.008 3.4-.23 5.71-2.237 2.308-7.76 4.84-8.117 2.098-.358-2.743 1.1-3.322 1.487-3.681.388-.357-5.317-3.112-5.317-3.112s-11.3-7.39-12.294-9.512c-.993-2.12 15.297-9.3 17.97-8.384 2.673.912 2.35 6.786 2.969 9.352z" clip-rule="evenodd"/>
        <path fill="#B37F3E" fill-rule="evenodd" d="M60.834 62.387c3.438-1.834 7.001-4.703 10.603-7.267 3.602-2.566 4.043-3.637 7.445-5.24 3.469-1.636 6.34-3.68 8.642-2.97 1.823.56 4.16 2.433 4.838 1.823-.044-1.02-1.63-3.543-1.398-3.677.278-.16 3.955 1.743 4.394 1.414 1.32-.992 2.96-2.59 2.457-3.813-.667-1.631-3.76-3.307-4.335-4.261-.574-.956-.047-2.549-1.407-3.795-1.36-1.247-7.402-6.867-15.651-5.807-8.25 1.06-5.46 1.894-9.133 2.045-3.673.15-11.22-7.315-24.07-6.3-12.852 1.016-17.412 2.487-22.605 11.207-5.194 8.72-5.97 12.78-3.125 18.586 2.845 5.807 5.475 8.565 4.78 10.076-.695 1.51-4.212 4.277-1.516 6.927 2.695 2.65 9.11 9.412 11.084 8.154 3.366-2.147-.602-5.486-.39-6.608.21-1.122 7.268-3.037 7.67-8.157 2.833 1.471 11.315-1.995 14.573-2.298 3.26-.304 3.707 1.793 7.145-.04z" clip-rule="evenodd"/>
        <mask id="b" width="83" height="56" x="15" y="24" maskUnits="userSpaceOnUse">
            <path fill="#fff" fill-rule="evenodd" d="M43.219 24.54c-12.852 1.015-17.412 2.486-22.605 11.206-5.194 8.72-5.97 12.779-3.125 18.586 2.845 5.808 5.475 8.565 4.78 10.076-.695 1.511-4.212 4.276-1.515 6.927 2.694 2.65 9.11 9.412 11.083 8.153 3.366-2.145-.602-5.484-.39-6.608.21-1.121 7.268-3.037 7.67-8.156 2.833 1.47 11.315-1.995 14.573-2.299 1.235-.114 2.068.117 2.811.346 1.218.377 2.2.754 4.334-.384 3.436-1.834 7-4.703 10.602-7.268 3.602-2.565 4.043-3.635 7.445-5.24 3.47-1.634 6.34-3.68 8.642-2.97 1.823.561 4.16 2.434 4.838 1.824-.044-1.02-1.63-3.543-1.397-3.677.133-.076 1.05.323 2.016.722 1.045.432 2.148.864 2.377.692 1.32-.992 2.96-2.59 2.458-3.814-.668-1.63-3.76-3.305-4.336-4.26-.573-.956-.047-2.549-1.407-3.796-1.36-1.246-7.402-6.867-15.651-5.806-8.25 1.06-5.46 1.895-9.132 2.044-1.74.071-4.344-1.562-7.968-3.195-3.547-1.6-8.072-3.198-13.714-3.198-.776 0-1.571.03-2.389.094z" clip-rule="evenodd"/>
        </mask>
        <g mask="url(#b)">
            <path fill="#EEC082" fill-rule="evenodd" d="M95.777 38.528c4.057-.338 7.59 2.232 7.892 5.742.301 3.51-2.743 6.63-6.8 6.967-4.056.337-7.588-2.232-7.89-5.742-.303-3.51 2.741-6.628 6.798-6.967z" clip-rule="evenodd"/>
        </g>
        <path fill="#B37F3E" fill-rule="evenodd" d="M81.709 26.377c1.587.058 2.109 1.345 2.051 2.91-.055 1.564-.67 2.81-2.257 2.755-1.588-.055-2.123-.99-2.066-2.554.058-1.566.684-3.167 2.272-3.111zM70.064 54.32S58.509 65.116 55.858 68.11c-2.65 2.996-7.556 8.832-9.337 11.625-1.447 2.27 6.844 6.667.28 7.445-4.267.506-8.502-3.655-8.19-7.14.31-3.487 8.234-18.262 9.434-20.343 1.2-2.082 15.529-18.045 22.019-5.377zM25.769 31.927c1.034 1.187-3.01 3.99-4.215 5.009-1.206 1.02-2.554 1.422-3.587.235-1.034-1.188-.7-2.21.506-3.228 1.206-1.02 6.262-3.203 7.296-2.016z" clip-rule="evenodd"/>
        <path fill="#D6AD76" fill-rule="evenodd" d="M90.932 44.982c.374-.315 4.388 1.442 4.388 1.442s-.039.406-.555.333c-.514-.071-3.132-1.51-3.376-1.329-.243.18 1.49 2.758 1.003 3.16-.49.404-1.833-3.29-1.46-3.606z" clip-rule="evenodd"/>
        <path fill="#EDAF19" fill-rule="evenodd" d="M63.12 39.736l-26.413 7.148.894-4.045-15.283 2.657.83-3.558-19.14.453 23.674-5.064-.87 3.173 16.646-2.647-1.439 3.958 21.102-2.075zM43.437 50.709l-22.868 6.175.718-3.173L5.04 55.927l20.947-5.265-1.156 3.105 18.486-3.1" clip-rule="evenodd"/>
        <path fill="#1A1A1A" fill-rule="evenodd" d="M46.312 86.44c-.083.42.595.394.348 1.338.586-.112.456-1.419.092-1.649-.364-.23-.358-.11-.44.31zM47.386 86.35c-.083.42.597.394.35 1.338.584-.111.454-1.42.09-1.649-.364-.23-.358-.11-.44.31zM48.042 85.583c-.083.421.595.396.349 1.339.584-.112.455-1.418.09-1.648-.363-.23-.357-.11-.44.31zM90.197 37.938c.391-.033.743.335.784.823.042.489-.24.91-.632.942-.391.034-.744-.336-.785-.823-.042-.489.241-.91.633-.942zM97.764 41.995c-1.098-1.112-1.553-.93-1.79.15-.222 1.005.673 2.98 1.615 1.999.692-.724 1.174-1.14.175-2.149zM63.148 75.343c-.41-.14-.48.525-1.393.152.03.588 1.362.643 1.643.32.282-.322.16-.332-.25-.472zM63.089 76.404c-.411-.14-.481.526-1.394.153.03.586 1.362.642 1.643.32.282-.323.16-.333-.25-.473zM63.766 77.152c-.41-.14-.48.525-1.393.152.03.588 1.362.642 1.644.32.28-.323.159-.333-.25-.472z" clip-rule="evenodd"/>
        <path fill="#D4D4D4" fill-rule="evenodd" d="M90.05 38.3a.175.175 0 1 1 .03.35.18.18 0 0 1-.193-.16.176.176 0 0 1 .163-.19z" clip-rule="evenodd"/>
    </g>
</svg>
